# xmcd
#
# Track frame offsets: 
#        150
#        17187
#        32297
#        42635
#        61825
#        79295
#        89220
#        103867
#        118450
#        133980
#        155342
#        170420
#        178872
#        191347
#        204932
#        215360
#        241612
#        250005
#
# Disc length: 3450 seconds
#
# Revision: 0
# Processed by: cddbd v1.5.2PL0 Copyright (c) Steve Scherf et al.
# Submitted via: ExactAudioCopyFreeDBPlugin 1.0
#
DISCID=fc0d7812
DTITLE=I Solisti Veneti, Claudio Scimone - Pergolesi: 6 Concertos for 
DTITLE=Strings and Harpsichord
DYEAR=2002
DGENRE=Classical
TTITLE0=Conertino #1 in G major - Grave - Allegro
TTITLE1=Grave, staccato
TTITLE2=Allegro
TTITLE3=Concertino #2 in G major - Largo - A Cappella (non Presto)
TTITLE4=Andante affettuoso
TTITLE5=Allegro
TTITLE6=Concertino #3 in A major - Grave assai sostenuto - A Cappella 
TTITLE6=(Canone di Palestrina)
TTITLE7=Andante
TTITLE8=Vivace
TTITLE9=Concertino #4 in F minor - Largo - A Cappella (Presto)
TTITLE10=A tempo comodo
TTITLE11=A tempo giusto
TTITLE12=Concertino #5 in E-flat major - Affettuoso
TTITLE13=Presto - Largo
TTITLE14=Vivace
TTITLE15=Concertino #6 in B-flat major - Andante - A Cappella (Presto)
TTITLE16=Adagio affettuoso
TTITLE17=Allegro molto
EXTD=
EXTT0=
EXTT1=
EXTT2=
EXTT3=
EXTT4=
EXTT5=
EXTT6=
EXTT7=
EXTT8=
EXTT9=
EXTT10=
EXTT11=
EXTT12=
EXTT13=
EXTT14=
EXTT15=
EXTT16=
EXTT17=
PLAYORDER=
